<svg width="299" height="108" viewBox="0 0 299 108" fill="none" xmlns="http://www.w3.org/2000/svg">
<path fill-rule="evenodd" clip-rule="evenodd" d="M204.88 75.8599C196.73 75.8299 189.46 75.4199 182.99 74.7399C190.67 71.5899 196.13 68.2099 199.78 65.4799C202.12 63.7299 200.87 60.0099 197.94 60.0099H147.77C149.39 58.7799 150.85 57.5599 152.14 56.3799H204.87C205.39 56.3799 205.82 55.9499 205.82 55.4299V36.4999C205.82 35.9699 205.39 35.5499 204.87 35.5499H193.92L197.24 27.7399C201.22 27.1999 203.84 26.7599 205.04 26.5399C205.49 26.4599 205.81 26.0699 205.81 25.6099V18.7699C205.81 18.1799 205.29 17.7299 204.7 17.8299C199.07 18.8199 172.06 23.0899 125.71 23.1499C125.19 23.1499 124.77 23.5699 124.77 24.0899V30.9799C124.77 31.4999 125.2 31.9299 125.73 31.9299C128.98 31.9299 132.13 31.8999 135.18 31.8599L136.75 35.5699H125.72C125.2 35.5699 124.77 35.9999 124.77 36.5199V55.4499C124.77 55.9699 125.2 56.3999 125.72 56.3999H138.95C133.16 60.2499 127.45 62.5899 125.56 63.2799C125.08 63.4499 124.77 63.9099 124.77 64.4099V70.8599C124.77 71.5199 125.43 71.9899 126.05 71.7499C129.13 70.5799 131.96 69.3499 134.56 68.0799C137.9 70.2099 142.21 72.5399 147.61 74.7599C141.14 75.4299 133.87 75.8499 125.72 75.8799C125.2 75.8799 124.76 76.3099 124.76 76.8299V83.5999C124.76 84.1299 125.19 84.5499 125.72 84.5499C141.63 84.4799 154.68 82.7899 165.29 80.3199C175.9 82.7899 188.95 84.4899 204.86 84.5499C205.39 84.5499 205.82 84.1199 205.82 83.5999V76.8299C205.82 76.3099 205.39 75.8799 204.87 75.8799L204.88 75.8599ZM194.68 44.2499V47.7099H159.84C161.3 45.5699 161.86 44.2499 161.86 44.2499H194.68ZM186.34 29.0499L183.57 35.5599H169.18L167.09 30.6399C174.57 30.1599 180.99 29.5999 186.33 29.0399L186.34 29.0499ZM156.99 31.1899L158.84 35.5499H147.08L145.41 31.6299C149.46 31.5099 153.32 31.3699 156.98 31.1999L156.99 31.1899ZM135.91 47.7099V44.2499H151.12C150.44 45.4299 149.64 46.6299 148.77 47.7099H135.91ZM165.27 71.9399C159.74 70.7099 155.13 69.2999 151.35 67.8899H179.19C175.41 69.2899 170.8 70.6999 165.27 71.9399ZM278.15 67.5999V60.5999C278.15 60.0999 277.62 59.7799 277.18 60.0199C267.41 65.3099 251.81 70.9899 235.76 73.8999V56.3799H243.74C244.26 56.3799 244.69 55.9499 244.69 55.4299V48.6399C244.69 48.1099 244.26 47.6899 243.74 47.6899H235.76V31.8799H243.74C244.26 31.8799 244.69 31.4499 244.69 30.9299V24.1399C244.69 23.6199 244.26 23.1899 243.74 23.1899H216.56C216.04 23.1899 215.61 23.6199 215.61 24.1399V30.9299C215.61 31.4499 216.03 31.8799 216.56 31.8799H224.62V47.6899H216.56C216.04 47.6899 215.61 48.1099 215.61 48.6399V55.4299C215.61 55.9499 216.03 56.3799 216.56 56.3799H224.62V75.4299C221.9 75.6799 219.2 75.8299 216.55 75.8499C216.03 75.8499 215.61 76.2699 215.61 76.7999V83.5699C215.61 84.0999 216.04 84.5299 216.57 84.5299C238.61 84.2899 264.08 75.9099 277.66 68.4299C277.96 68.2599 278.15 67.9399 278.15 67.5999ZM292.72 47.6899H297.72L297.73 47.6799C298.26 47.6799 298.68 48.1099 298.68 48.6299V83.5699C298.68 84.0899 298.26 84.5199 297.73 84.5199H269.46C268.94 84.5199 268.51 84.0899 268.51 83.5699V76.7799C268.51 76.2599 268.93 75.8299 269.46 75.8299H287.51V56.3699H250.49C249.97 56.3699 249.54 55.9399 249.54 55.4199V24.1399C249.54 23.6099 249.97 23.1899 250.49 23.1899H291.77C292.3 23.1899 292.72 23.6099 292.72 24.1399V47.6899ZM260.69 47.6799H281.57V31.8699H260.69V47.6799Z" fill="black"/>
<path fill-rule="evenodd" clip-rule="evenodd" d="M0 53.79C0 24.13 24.13 0 53.79 0C83.45 0 107.57 24.13 107.57 53.79C107.57 83.45 83.45 107.58 53.79 107.58C24.13 107.58 0 83.45 0 53.79ZM5.18 53.78C5.18 80.58 26.99 102.39 53.79 102.39V102.4C80.59 102.4 102.4 80.6 102.4 53.79C102.4 26.98 80.6 5.18 53.79 5.18C26.98 5.18 5.18 26.98 5.18 53.78ZM53.79 43.7399L61.06 26.4599H61.08C62.89 22.1599 68.99 22.1599 70.8 26.4599L91.88 76.5399C92.14 77.1699 91.68 77.8599 91 77.8599H82.86C82.47 77.8599 82.13 77.6299 81.98 77.2799L73.13 56.2599H59.08L67.62 76.5399C67.88 77.1699 67.42 77.8599 66.74 77.8599H58.62C58.23 77.8599 57.89 77.6299 57.74 77.2799L51.78 63.1199L45.81 77.2799C45.66 77.6299 45.31 77.8599 44.93 77.8599H40.87C40.19 77.8599 39.73 77.1699 39.99 76.5399L48.53 56.2599H30.4L21.55 77.2799C21.4 77.6299 21.05 77.8599 20.67 77.8599H16.6C15.92 77.8599 15.46 77.1699 15.72 76.5399L36.8 26.4599C38.61 22.1599 44.71 22.1599 46.52 26.4599L53.79 43.7399ZM39.65 34.2999L32.65 50.9299H46.65L39.65 34.2999ZM63.9 34.3199L56.91 50.9299H70.89L63.9 34.3199Z" fill="#D4166C"/>
</svg>
