<svg width="375" height="211" viewBox="0 0 375 211" fill="none" xmlns="http://www.w3.org/2000/svg">
<rect width="374.225" height="210.583" fill="url(#paint0_linear_19_464)"/>
<path fill-rule="evenodd" clip-rule="evenodd" d="M35.2059 70.2749C35.2059 50.9377 50.9377 35.2059 70.2749 35.2059C89.6121 35.2059 105.337 50.9377 105.337 70.2749C105.337 89.6121 89.6121 105.344 70.2749 105.344C50.9377 105.344 35.2059 89.6121 35.2059 70.2749ZM38.5831 70.2684C38.5831 87.7409 52.8024 101.96 70.2749 101.96V101.967C87.7475 101.967 101.967 87.754 101.967 70.2749C101.967 52.7958 87.754 38.5831 70.2749 38.5831C52.7958 38.5831 38.5831 52.7958 38.5831 70.2684ZM70.2749 63.7226L75.0147 52.4567H75.0277C76.2078 49.6533 80.1847 49.6533 81.3648 52.4567L95.1081 85.1069C95.2776 85.5177 94.9777 85.9675 94.5344 85.9675H89.2274C88.9731 85.9675 88.7515 85.8176 88.6537 85.5894L82.8838 71.8852H73.7238L79.2915 85.1069C79.461 85.5177 79.1611 85.9675 78.7178 85.9675H73.4239C73.1696 85.9675 72.9479 85.8176 72.8502 85.5894L68.9645 76.3576L65.0723 85.5894C64.9745 85.8176 64.7463 85.9675 64.4985 85.9675H61.8516C61.4082 85.9675 61.1083 85.5177 61.2779 85.1069L66.8456 71.8852H55.0255L49.2557 85.5894C49.1579 85.8176 48.9297 85.9675 48.682 85.9675H46.0285C45.5852 85.9675 45.2853 85.5177 45.4548 85.1069L59.1981 52.4567C60.3781 49.6533 64.3551 49.6533 65.5352 52.4567L70.2749 63.7226ZM61.0562 57.5681L56.4925 68.4102H65.6199L61.0562 57.5681ZM76.8662 57.5811L72.309 68.4102H81.4234L76.8662 57.5811Z" fill="#D4166C"/>
<path fill-rule="evenodd" clip-rule="evenodd" d="M168.78 84.6636C163.466 84.644 158.726 84.3767 154.508 83.9334C159.515 81.8797 163.075 79.6761 165.455 77.8962C166.98 76.7553 166.165 74.33 164.255 74.33H131.546C132.602 73.5281 133.554 72.7327 134.395 71.9634H168.773C169.112 71.9634 169.392 71.683 169.392 71.344V59.0024C169.392 58.6568 169.112 58.383 168.773 58.383H161.634L163.799 53.2912C166.393 52.9391 168.102 52.6523 168.884 52.5088C169.177 52.4567 169.386 52.2024 169.386 51.9025V47.4431C169.386 47.0585 169.047 46.7651 168.662 46.8303C164.992 47.4757 147.382 50.2596 117.164 50.2987C116.825 50.2987 116.551 50.5725 116.551 50.9115V55.4036C116.551 55.7426 116.831 56.0229 117.177 56.0229C119.296 56.0229 121.35 56.0034 123.338 55.9773L124.362 58.3961H117.17C116.831 58.3961 116.551 58.6764 116.551 59.0154V71.357C116.551 71.6961 116.831 71.9764 117.17 71.9764H125.796C122.021 74.4864 118.298 76.012 117.066 76.4619C116.753 76.5727 116.551 76.8726 116.551 77.1986V81.4037C116.551 81.834 116.981 82.1405 117.386 81.984C119.394 81.2212 121.239 80.4193 122.934 79.5913C125.111 80.98 127.921 82.499 131.442 83.9464C127.224 84.3832 122.484 84.657 117.17 84.6766C116.831 84.6766 116.545 84.9569 116.545 85.296V89.7097C116.545 90.0553 116.825 90.3291 117.17 90.3291C127.543 90.2835 136.051 89.1816 142.969 87.5713C149.886 89.1816 158.394 90.29 168.767 90.3291C169.112 90.3291 169.392 90.0487 169.392 89.7097V85.296C169.392 84.9569 169.112 84.6766 168.773 84.6766L168.78 84.6636ZM162.13 64.0551V66.3109H139.415C140.367 64.9157 140.732 64.0551 140.732 64.0551H162.13ZM156.692 54.1453L154.886 58.3895H145.505L144.142 55.1819C149.019 54.8689 153.204 54.5038 156.686 54.1387L156.692 54.1453ZM137.557 55.5405L138.763 58.383H131.096L130.008 55.8273C132.648 55.7491 135.165 55.6578 137.551 55.547L137.557 55.5405ZM123.814 66.3109V64.0551H133.73C133.287 64.8244 132.765 65.6067 132.198 66.3109H123.814ZM142.955 82.1079C139.35 81.306 136.345 80.3867 133.88 79.4674H152.031C149.566 80.3802 146.561 81.2994 142.955 82.1079ZM216.549 79.2784V74.7147C216.549 74.3887 216.203 74.1801 215.916 74.3365C209.547 77.7854 199.376 81.4885 188.912 83.3858V71.9634H194.115C194.454 71.9634 194.734 71.6831 194.734 71.344V66.9172C194.734 66.5717 194.454 66.2979 194.115 66.2979H188.912V55.9904H194.115C194.454 55.9904 194.734 55.71 194.734 55.371V50.9442C194.734 50.6052 194.454 50.3248 194.115 50.3248H176.395C176.056 50.3248 175.775 50.6052 175.775 50.9442V55.371C175.775 55.71 176.049 55.9904 176.395 55.9904H181.649V66.2979H176.395C176.056 66.2979 175.775 66.5717 175.775 66.9172V71.344C175.775 71.6831 176.049 71.9634 176.395 71.9634H181.649V84.3832C179.876 84.5462 178.116 84.644 176.388 84.6571C176.049 84.6571 175.775 84.9309 175.775 85.2764V89.6902C175.775 90.0358 176.056 90.3161 176.401 90.3161C190.77 90.1596 207.376 84.6962 216.229 79.8195C216.425 79.7087 216.549 79.5001 216.549 79.2784ZM226.048 66.2979H229.308L229.314 66.2913C229.66 66.2913 229.934 66.5717 229.934 66.9107V89.6902C229.934 90.0292 229.66 90.3096 229.314 90.3096H210.883C210.544 90.3096 210.264 90.0292 210.264 89.6902V85.2634C210.264 84.9244 210.538 84.644 210.883 84.644H222.651V71.9569H198.516C198.177 71.9569 197.896 71.6765 197.896 71.3375V50.9442C197.896 50.5986 198.177 50.3248 198.516 50.3248H225.428C225.774 50.3248 226.048 50.5986 226.048 50.9442V66.2979ZM205.166 66.2913H218.779V55.9838H205.166V66.2913Z" fill="white"/>
<defs>
<linearGradient id="paint0_linear_19_464" x1="0" y1="0" x2="88.5437" y2="174.698" gradientUnits="userSpaceOnUse">
<stop stop-opacity="0.5"/>
<stop offset="1" stop-opacity="0"/>
</linearGradient>
</defs>
</svg>
